<?xml version="1.0" encoding="iso-8859-1"?>
<!-- Generator: Adobe Illustrator 19.0.0, SVG Export Plug-In . SVG Version: 6.00 Build 0)  -->
<svg xmlns="http://www.w3.org/2000/svg" xmlns:xlink="http://www.w3.org/1999/xlink" version="1.1" id="Layer_1" x="0px" y="0px" viewBox="0 0 457.573 457.573" style="enable-background:new 0 0 457.573 457.573;" xml:space="preserve" width="512px" height="512px">
<g id="XMLID_488_">
	<g>
		<g>
			<path d="M456.693,381.25l-30.732-94.019c-2.415-7.392-9.373-12.311-17.151-12.188c-44.336,0.851,20.23,0.283-85.969,1.085     c-8.675,0.065-16.086-5.524-18.763-13.297l-19.089-55.693l31.813,47.098c2.742,4.06,7.319,6.489,12.213,6.489     c0.037,0,0.075,0,0.112-0.001l58.885-0.444c8.14-0.061,14.689-6.71,14.628-14.85c-0.061-8.103-6.648-14.628-14.736-14.628     c-0.038,0-0.076,0-0.114,0.001l-50.983,0.384l-27.39-40.548l29.127,25.18l4.679-0.035l-15.547-43.334     c-4.099-11.424-16.682-17.363-28.107-13.264l-21.217,7.612c-5.126,6.887-11.613,18.685-14.56,36.692     c-0.961,5.872-1.594,12.719-2.099,20.117l34.712,77.122c3.545,7.877,11.861,9.994,20.465,9.994c17.928,0,43.751-0.06,79.532-0.06     l26.667,81.579c3.04,9.3,13.037,14.348,22.307,11.316C454.662,400.521,459.729,390.534,456.693,381.25z" fill="#FFFFFF"/>
			<path d="M426.612,413.166h-52.714v-61.094l10.123-0.053c8.458-0.044,15.278-6.936,15.234-15.393     c-0.044-8.432-6.892-15.235-15.313-15.235c-0.026,0-0.054,0-0.081,0l-89.887,0.468l-33.636-74.345     c-1.065,19.172-2.576,40.073-7.452,57.831l17.279,38.191c2.48,5.482,7.939,9.002,13.952,9.002c0.026,0,0.054,0,0.08,0     l22.608-0.117v60.745h-52.714c-8.458,0-15.314,6.856-15.314,15.314s6.856,15.314,15.314,15.314h172.521     c8.458,0,15.314-6.856,15.314-15.314C441.927,420.022,435.07,413.166,426.612,413.166z" fill="#FFFFFF"/>
			<path d="M278.47,149.086v-0.001c4.032-1.902,7.52-4.552,10.35-7.724c7.68-8.61,10.529-21.044,6.359-32.667     c-3.875-10.801-12.876-18.281-23.279-20.701c-4.16-0.968-8.543-1.125-12.914-0.36c-0.034,0.001-31.625,1.32-53.792,42.429     c3.732,4.562,6.241,10.211,6.943,16.505c1.752,15.721-8.332,30.033-23.141,34.042c-6.511,50.845,21.578,80.914,24.965,144.91     c0.312,5.896,7.315,8.911,11.725,4.984c26.587-23.674,19.962-91.661,26.069-128.985     C257.946,163.673,278.47,149.086,278.47,149.086z" fill="#FFFFFF"/>
			<circle cx="102.374" cy="48.839" r="35.06" fill="#FFFFFF"/>
			<path d="M107.266,175.4l75.31-8.395c9.352-1.043,16.088-9.469,15.046-18.821c-0.462-4.145-2.379-7.772-5.179-10.44l7.477-12.79     c4.073-6.967,26.79-45.829,30.045-51.397c4.181-7.152,1.772-16.339-5.38-20.52l-35.832,61.297l6.765-70.678     c-8.247-0.789-15.571,5.256-16.361,13.502l-5.926,61.906l-1.422,14.854l-61.755,6.884l-36.543-26.563l33.168,12.244l14.379-1.603     c-0.883-12.413-10.705-22.668-23.492-23.719l-45.602-3.749c-14.123-1.161-26.513,9.347-27.674,23.47l-8.103,131.422l10.747,70.07     L0.733,417.937c-2.986,10.891,3.422,22.139,14.312,25.125c10.889,2.984,22.139-3.424,25.125-14.313l27.352-99.764     c0.759-2.77,0.927-5.668,0.492-8.506l-9.929-64.733l7.954,0.654l24.39,66.5l-20.374,96.208     c-2.688,12.696,6.991,24.687,20.023,24.687c9.454,0,17.945-6.596,19.982-16.214l21.593-101.963     c0.796-3.761,0.517-7.669-0.807-11.277l-20.471-55.814l5.631-68.501l15.519,16.374c1.659,1.752,3.878,3.007,6.438,3.452     c3.95,0.687,9.535,1.657,39.518,6.869c-1.663-10.707-2.248-21.965-0.973-34.344c-7.509,0.837-63.663,7.097-74.035,8.253     c-6.227,0.694-12.074-1.994-15.699-6.567l-33.3-42.26l41.887,30.447C98.81,174.756,103.062,175.869,107.266,175.4z" fill="#FFFFFF"/>
		</g>
	</g>
</g>
<g>
</g>
<g>
</g>
<g>
</g>
<g>
</g>
<g>
</g>
<g>
</g>
<g>
</g>
<g>
</g>
<g>
</g>
<g>
</g>
<g>
</g>
<g>
</g>
<g>
</g>
<g>
</g>
<g>
</g>
</svg>
