<?xml version="1.0" encoding="iso-8859-1"?>
<!-- Generator: Adobe Illustrator 19.0.0, SVG Export Plug-In . SVG Version: 6.00 Build 0)  -->
<svg xmlns="http://www.w3.org/2000/svg" xmlns:xlink="http://www.w3.org/1999/xlink" version="1.1" id="Layer_1" x="0px" y="0px" viewBox="0 0 458.642 458.642" style="enable-background:new 0 0 458.642 458.642;" xml:space="preserve" width="512px" height="512px">
<g id="XMLID_527_">
	<g>
		<g>
			<path d="M205.757,134.482c13.028,2.119,25.541-3.251,33.157-12.943l-20.533-15.672c-12.756-9.736-16.534-26.869-9.922-40.809     c-15.642,1.295-28.995,13.067-31.628,29.26C173.728,113.397,186.678,131.379,205.757,134.482z" fill="#FFFFFF"/>
			<circle cx="348.911" cy="36.983" r="36.983" fill="#FFFFFF"/>
			<path d="M410.259,432.823l-20.584-102.478l16.432-72.951l1.082-138.89c-0.189-14.947-12.459-26.91-27.406-26.721l-48.262,0.61     c-5.463,0.069-10.524,1.757-14.742,4.595l1.591,1.214l36.643,6.944l-47.473,4.17l-58.002-44.271     c-7.891-6.021-19.169-4.508-25.192,3.382c-6.023,7.891-4.508,19.17,3.382,25.192l63.539,48.497     c3.467,2.646,7.889,4.018,12.478,3.617l54.413-4.779l-52.837,20.039l1.235,97.658l0.119-0.001l-15.166,60.027     c-0.408,1.616-0.628,3.274-0.654,4.94l-1.798,113.113c-0.189,11.91,9.312,21.718,21.222,21.908     c0.117,0.002,0.233,0.003,0.35,0.003c11.751,0,21.371-9.432,21.558-21.225l1.758-110.604l17.364-68.726l10.456-0.132     l-15.18,67.394c-0.665,2.955-0.701,6.017-0.105,8.987l21.49,106.983c2.343,11.665,13.698,19.244,25.393,16.898     C405.039,455.87,412.604,444.501,410.259,432.823z" fill="#FFFFFF"/>
			<path d="M256.411,250.874c1.589-1.374,2.88-3.138,3.693-5.232c2.657-6.843-0.736-14.543-7.579-17.2l-42.857-16.64l-9.243-42.091     l15.574,30.292l13.43,5.215l5.196-31.945c1.757-10.802-5.576-20.984-16.378-22.741c-35.476-5.77-31.248-5.083-34.88-5.674     c-10.802-1.757-20.984,5.576-22.741,16.378c-4.679,31.011-12.717,85.117-14.47,97.112c-0.497,6.503,2.984,12.386,8.388,15.278     h-17.971c-4.413,0-7.991,3.578-7.991,7.991v22.635l-5.62,0.028L84.904,170.079c-2.837-10.004-13.246-15.814-23.251-12.977     c-10.004,2.837-15.813,13.247-12.977,23.251l41.962,147.963c2.298,8.103,9.697,13.691,18.113,13.691c0.032,0,0.064,0,0.096,0     l14.226-0.072v79.05H84.764c-10.398,0-18.828,8.43-18.828,18.828s8.43,18.828,18.828,18.828h159.105     c10.398,0,18.828-8.43,18.828-18.828s-8.43-18.828-18.828-18.828h-38.31v-79.467l19.867-0.1l-1.68,10.477     c-1.555,9.694,5.934,18.477,15.767,18.477c7.695-0.001,14.47-5.584,15.728-13.426l14.09-87.853     C270.666,260.779,265.174,252.452,256.411,250.874z M231.471,303.732l-10.478,0.053V280.07l14.1,1.079L231.471,303.732z" fill="#FFFFFF"/>
		</g>
	</g>
</g>
<g>
</g>
<g>
</g>
<g>
</g>
<g>
</g>
<g>
</g>
<g>
</g>
<g>
</g>
<g>
</g>
<g>
</g>
<g>
</g>
<g>
</g>
<g>
</g>
<g>
</g>
<g>
</g>
<g>
</g>
</svg>
