<?xml version="1.0" encoding="iso-8859-1"?>
<!-- Generator: Adobe Illustrator 19.0.0, SVG Export Plug-In . SVG Version: 6.00 Build 0)  -->
<svg xmlns="http://www.w3.org/2000/svg" xmlns:xlink="http://www.w3.org/1999/xlink" version="1.1" id="Layer_1" x="0px" y="0px" viewBox="0 0 459.802 459.802" style="enable-background:new 0 0 459.802 459.802;" xml:space="preserve" width="512px" height="512px">
<g id="XMLID_88_">
	<g>
		<g>
			<path d="M452.853,319.688l-72.691-62.658c-3.734-3.218-8.537-4.939-13.453-4.852c-48.84,0.938,20.581,0.339-96.385,1.221     c-9.409,0.071-17.54-5.554-21.139-13.633l-32.814-73.94l46.595,63.35c3.145,4.276,8.135,6.797,13.438,6.797     c0.041,0,0.084,0,0.126-0.001l66.642-0.503c9.212-0.069,16.624-7.594,16.555-16.806c-0.069-9.212-7.56-16.63-16.807-16.554     l-58.125,0.438l-37.615-51.142l40.171,33.744l5.132-0.039l-17.595-49.042c-4.639-12.929-18.88-19.65-31.809-15.011     c-0.001,0-39.834,14.291-39.834,14.291c-13.639,4.893-20.235,20.391-14.281,33.618L239.5,281.244     c4.016,8.923,13.579,13.911,23.143,12.184c4.355,1.152-2.868,0.842,97.18-1.079l66.893,57.66     c8.372,7.216,21.012,6.283,28.231-2.093C462.164,339.545,461.227,326.905,452.853,319.688z" fill="#FFFFFF"/>
			<path d="M215.887,111.003c19.082-6.846,29.024-27.822,22.278-46.916l-64.494,33.905     C183.042,110.898,200.12,116.66,215.887,111.003z" fill="#FFFFFF"/>
			<path d="M386.855,410.049h-59.658v-70.626l28.511-0.129c9.572-0.043,17.297-7.838,17.253-17.41     c-0.043-9.545-7.794-17.253-17.329-17.253c-0.026,0-0.054,0-0.08,0l-118.803,0.536l-61.282-135.452     c-3.946-8.721-14.213-12.591-22.936-8.646c-8.721,3.946-12.592,14.214-8.645,22.935L209.8,329.693     c2.808,6.204,8.985,10.188,15.791,10.188c0.025,0,0.053,0,0.078,0l25.598-0.116v70.284h-59.658     c-9.572,0-17.331,7.76-17.331,17.332c0,9.572,7.759,17.331,17.331,17.331h195.246c9.572,0,17.331-7.76,17.331-17.331     C404.186,417.809,396.428,410.049,386.855,410.049z" fill="#FFFFFF"/>
			<path d="M121.658,408.755v-21.581c0-5.084-4.121-9.205-9.205-9.205h-35.6V76.349h11.868c1.939,0,3.511-1.572,3.511-3.511V61.904     c39.119,0,40.982,0,52.652,0c-1.238,8.929-0.271,18.234,3.179,27.063c1.197,3.064,4.796,4.367,7.658,2.863l85.705-45.057     c2.889-1.519,3.823-5.218,1.984-7.932c-15.272-22.54-45.382-30.486-70.057-17.514c-8.533,4.486-15.372,10.928-20.261,18.483     c-6.94,0-54.059,0-60.861,0v-8.007c0-1.939-1.572-3.511-3.511-3.511H42.893c-1.939,0-3.511,1.572-3.511,3.511v8.007H23.6     c-6.101,0-11.046,4.946-11.046,11.046c0,6.1,4.945,11.048,11.046,11.048h15.782v10.934c0,1.939,1.572,3.511,3.511,3.511h11.869     v301.62H19.161c-5.084,0-9.205,4.121-9.205,9.205v21.581C4.028,412.016,0,418.321,0,425.551c0,10.565,8.596,19.161,19.161,19.161     s19.161-8.595,19.161-19.161c0-7.231-4.028-13.535-9.956-16.797v-12.376h26.396v7.824c0,6.101,4.945,11.046,11.046,11.046     s11.046-4.946,11.046-11.046v-7.824h26.395v12.376c-5.928,3.262-9.956,9.566-9.956,16.797c0,10.565,8.596,19.161,19.161,19.161     s19.161-8.595,19.161-19.161C131.614,418.321,127.586,412.016,121.658,408.755z" fill="#FFFFFF"/>
		</g>
	</g>
</g>
<g>
</g>
<g>
</g>
<g>
</g>
<g>
</g>
<g>
</g>
<g>
</g>
<g>
</g>
<g>
</g>
<g>
</g>
<g>
</g>
<g>
</g>
<g>
</g>
<g>
</g>
<g>
</g>
<g>
</g>
</svg>
