<?xml version="1.0" encoding="iso-8859-1"?>
<!-- Generator: Adobe Illustrator 19.0.0, SVG Export Plug-In . SVG Version: 6.00 Build 0)  -->
<svg xmlns="http://www.w3.org/2000/svg" xmlns:xlink="http://www.w3.org/1999/xlink" version="1.1" id="Layer_1" x="0px" y="0px" viewBox="0 0 451.391 451.391" style="enable-background:new 0 0 451.391 451.391;" xml:space="preserve" width="512px" height="512px">
<g id="XMLID_502_">
	<g>
		<g>
			<path d="M355.672,188.835v-33.502c0-1.939-1.572-3.511-3.511-3.511h-6.156v-23.511c0-1.939-1.572-3.511-3.511-3.511h-9.333     l-23.815-4.897c-2.704-0.559-5.348,1.185-5.904,3.891c-0.557,2.704,1.186,5.348,3.891,5.904l18.673,3.84v18.285h-6.155     c-1.939,0-3.511,1.572-3.511,3.511v32.21h-17.526l-23.931-68.315c-2.367-6.759-8.747-11.284-15.908-11.284     c-11.017,0-77.896,0-87.868,0l-37.666-12.887l42.016-41.382c6.633-6.533,6.714-17.205,0.182-23.838     c-6.533-6.632-17.204-6.714-23.838-0.182L90.361,90.17c-4.162,4.099-5.904,10.061-4.606,15.755     c1.298,5.695,5.451,10.313,10.977,12.203c72.449,24.788,67.429,23.529,72.082,23.529l0.007,289.506     c0,11.171,9.057,20.228,20.228,20.228c11.171,0,20.227-9.057,20.227-20.228V269.481h8.734v161.681     c0,11.171,9.057,20.228,20.228,20.228c11.171,0,20.228-9.057,20.228-20.228c0-0.589-0.367-257.289-0.367-257.879l12.852,36.688     c2.367,6.759,8.747,11.284,15.908,11.284h62.342c9.309,0,16.856-7.547,16.856-16.856     C366.055,197.384,361.768,191.374,355.672,188.835z" fill="#FFFFFF"/>
			<path d="M189.738,36.404c-7.194,6.754-11.534,16.514-10.989,27.281c0.885,17.497,14.939,31.835,32.418,33.037     c20.412,1.404,37.406-14.738,37.406-34.85c0-10.794-4.898-20.442-12.589-26.85c0,0-16.554-14.31-21.501-33.271     c-0.515-1.973-3.139-2.39-4.243-0.675c-2.848,4.424-6.462,11.307-5.806,16.955c0,0-5.95-2.374-10.196-11.118     c-1.237-2.547-4.952-2.303-5.859,0.379C185.409,16.075,182.418,29.832,189.738,36.404z" fill="#FFFFFF"/>
		</g>
	</g>
</g>
<g>
</g>
<g>
</g>
<g>
</g>
<g>
</g>
<g>
</g>
<g>
</g>
<g>
</g>
<g>
</g>
<g>
</g>
<g>
</g>
<g>
</g>
<g>
</g>
<g>
</g>
<g>
</g>
<g>
</g>
</svg>
