<?xml version="1.0" encoding="iso-8859-1"?>
<!-- Generator: Adobe Illustrator 19.0.0, SVG Export Plug-In . SVG Version: 6.00 Build 0)  -->
<svg xmlns="http://www.w3.org/2000/svg" xmlns:xlink="http://www.w3.org/1999/xlink" version="1.1" id="Layer_1" x="0px" y="0px" viewBox="0 0 456.603 456.603" style="enable-background:new 0 0 456.603 456.603;" xml:space="preserve" width="512px" height="512px">
<g id="XMLID_725_">
	<g>
		<g>
			<path d="M425.442,410.992l-24.064-102.435c-6.775,0.299-3.407,0.671-79.606-19.651c-9.245-2.466-15.494-10.576-16.069-19.625     l-4.025-64.81l20.07,59.388c1.743,5.158,5.952,9.101,11.212,10.503c68.282,18.21,63.964,17.289,66.957,17.289     c7.185,0,13.758-4.8,15.697-12.072c2.314-8.675-2.844-17.583-11.518-19.897l-54.336-14.49l-17.279-51.13l23.619,35.292     l11.861,3.163l7.154-23.462c3.904-12.805-3.311-26.351-16.116-30.255l-39.452-12.029c-13.507-4.118-27.688,4.152-30.738,17.955     l-25.893,117.171c-1.459,6.603-0.913,14.32,3.441,19.814c4.029,5.084,11.49,7.862,18.439,7.728l81.046-1.556l21.62,92.032     c2.465,10.495,12.97,16.994,23.453,14.53C421.401,431.98,427.906,421.48,425.442,410.992z" fill="#FFFFFF"/>
			<circle cx="371.42" cy="127.962" r="35.882" fill="#FFFFFF"/>
			<path d="M362.092,422.821h-46.567v-46.977l22.271-0.101c9.329-0.042,16.857-7.638,16.814-16.967     c-0.042-9.303-7.596-16.815-16.889-16.815c-0.026,0-0.053,0-0.078,0l-87.313,0.393l-13.993-77.957     c-1.648-9.182-10.431-15.293-19.609-13.641c-9.182,1.648-15.289,10.428-13.641,19.61l16.501,91.928     c1.445,8.052,8.45,13.907,16.624,13.907c0.025,0,0.052,0,0.077,0l19.966-0.09v46.709h-46.568     c-9.329,0-16.891,7.563-16.891,16.891c0,9.329,7.562,16.891,16.891,16.891h152.405c9.329,0,16.891-7.563,16.891-16.891     S371.422,422.821,362.092,422.821z" fill="#FFFFFF"/>
			<circle cx="139.293" cy="37.209" r="37.209" fill="#FFFFFF"/>
			<path d="M266.474,112.259c-3.23-9.451-13.509-14.492-22.959-11.264l-69.468,23.739l-43.971-19.124l26.966,3.673     c-3.823-9.03-12.402-15.686-22.853-16.545L85.793,88.76c-14.989-1.232-28.138,9.92-29.37,24.909l-8.635,139.475l11.441,74.597     l-27.806,101.42c-3.782,13.795,6.611,27.446,20.939,27.442c9.531-0.001,18.272-6.33,20.914-15.967l29.028-105.879     c0.806-2.939,0.983-6.015,0.521-9.027l-10.572-68.932l8.392,0.69l25.971,70.81l-21.623,102.106     c-2.854,13.478,7.424,26.199,21.25,26.199c10.034,0,19.045-7,21.207-17.208l22.916-108.213c0.845-3.99,0.548-8.138-0.856-11.968     l-21.741-59.276l7.311-88.944l-39.426-32.219l50.396,21.919c4.039,1.757,8.696,2.02,13.06,0.529l76.101-26.006     C264.661,131.988,269.704,121.709,266.474,112.259z" fill="#FFFFFF"/>
			<path d="M263.726,86.021c0.119-3.06,2.608-5.457,5.665-5.457l0.232,0.004c3.135,0.123,5.574,2.761,5.451,5.896     c-0.108,2.762-2.153,4.966-4.798,5.372c3.181,2.528,5.933,5.645,8.056,9.271c2.844-1.706,5.152-4.201,6.625-7.204l3.179,0.125     l-0.124,3.162c-3.394,1.342-6.248,3.727-8.189,6.773c3.136,6.776,3.939,14.301,2.298,21.538c3.362,3.401,7.776,5.156,12.32,5.156     c9.346,0,16.954-7.319,17.32-16.663c0.27-6.931-3.553-13.214-9.667-16.228l0.125-3.187l11.611,0.455     c6.881,0.27,13.363-3.228,16.915-9.127c0.531-0.881,0.556-1.977,0.068-2.882c-0.488-0.905-1.418-1.485-2.446-1.526l-25.596-1.003     l1.003-25.596c0.04-1.028-0.465-2-1.33-2.558c-0.864-0.558-1.959-0.618-2.879-0.158c-6.159,3.08-10.153,9.268-10.422,16.149     l-0.455,11.611l-3.187-0.125c-2.52-6.312-8.47-10.634-15.422-10.906c-9.357-0.389-17.088,6.602-17.924,15.723     c4.129,0.347,8.131,1.453,11.81,3.23C263.789,87.285,263.701,86.664,263.726,86.021z M294.424,107.639l0.231,0.004     c3.136,0.123,5.574,2.76,5.451,5.896c-0.119,3.06-2.608,5.457-5.666,5.457l-0.229-0.004c-3.132-0.123-5.576-2.754-5.452-5.896     C288.878,110.036,291.367,107.639,294.424,107.639z" fill="#FFFFFF"/>
		</g>
	</g>
</g>
<g>
</g>
<g>
</g>
<g>
</g>
<g>
</g>
<g>
</g>
<g>
</g>
<g>
</g>
<g>
</g>
<g>
</g>
<g>
</g>
<g>
</g>
<g>
</g>
<g>
</g>
<g>
</g>
<g>
</g>
</svg>
