<?xml version="1.0" encoding="iso-8859-1"?>
<!-- Generator: Adobe Illustrator 19.0.0, SVG Export Plug-In . SVG Version: 6.00 Build 0)  -->
<svg xmlns="http://www.w3.org/2000/svg" xmlns:xlink="http://www.w3.org/1999/xlink" version="1.1" id="Layer_1" x="0px" y="0px" viewBox="0 0 457.573 457.573" style="enable-background:new 0 0 457.573 457.573;" xml:space="preserve" width="512px" height="512px">
<g id="XMLID_226_">
	<g>
		<g>
			<path d="M456.693,377.749l-30.732-94.019c-2.416-7.392-9.414-12.368-17.151-12.188c-43.987,0.845,19.288,0.29-85.969,1.085     c-8.675,0.065-16.086-5.524-18.763-13.297l-19.089-55.693l31.813,47.098c2.742,4.06,7.319,6.489,12.213,6.489     c0.037,0,0.075,0,0.112-0.001l58.885-0.444c8.14-0.062,14.689-6.71,14.628-14.85c-0.061-8.102-6.648-14.628-14.736-14.628     c-0.038,0-0.076,0-0.114,0.001l-50.983,0.385l-27.39-40.55l29.127,25.18l4.679-0.035l-15.547-43.334     c-4.099-11.424-16.682-17.363-28.107-13.264l-21.237,7.619c-5.138,6.886-11.587,18.643-14.539,36.684     c-1.039,6.349-1.764,13.015-2.241,19.801l34.854,77.438c3.549,7.885,11.87,10.423,20.449,10.766     c3.963,0.159,33.036,0.105,79.548-0.832l26.666,81.579c3.037,9.291,13.027,14.351,22.307,11.316     C454.662,397.021,459.728,387.033,456.693,377.749z" fill="#FFFFFF"/>
			<path d="M426.612,409.666h-52.714V348.57l10.123-0.053c8.457-0.044,15.278-6.936,15.234-15.393     c-0.044-8.457-6.914-15.253-15.393-15.234l-89.887,0.467l-33.171-73.316c0.156,28.275,3.239,54.489,4.575,64.546     c0.67,5.041-0.238,10.034-2.478,14.394l7.264,16.054c2.48,5.482,7.939,9.001,13.952,9.001c0.026,0,0.054,0,0.08,0l22.608-0.118     v60.747h-52.714c-8.458,0-15.315,6.856-15.315,15.314s6.857,15.314,15.315,15.314h172.52c8.458,0,15.314-6.856,15.314-15.314     S435.07,409.666,426.612,409.666z" fill="#FFFFFF"/>
			<path d="M253.285,311.194c-2.315-17.427-8.39-71.265-1.532-113.177c6.193-37.845,26.717-52.432,26.717-52.432v-0.001     c4.032-1.902,7.52-4.552,10.35-7.724c7.68-8.61,10.529-21.044,6.359-32.667c-3.875-10.801-12.876-18.281-23.279-20.701     c-4.16-0.968-8.542-1.125-12.913-0.36c0,0-31.614,1.297-53.793,42.429c3.732,4.562,6.241,10.211,6.943,16.505     c1.789,16.05-8.762,30.623-24.08,34.272c-13.061,58.645-10.264,108.913-8.319,128.697c0.822,8.367,5.304,15.97,12.232,20.732     c5.326,3.661,12.679,6.771,22.32,6.818c0.117,0.001,0.234,0.001,0.35,0.001c17.639,0,28.643-6.519,34.415-11.405     C252.243,319.479,253.835,315.337,253.285,311.194z" fill="#FFFFFF"/>
			<circle cx="88.374" cy="52.338" r="35.06" fill="#FFFFFF"/>
			<path d="M110.375,255.026l5.706-69.415c-0.362,0.04-13.247,1.477-13.608,1.517c-6.227,0.694-12.074-1.994-15.699-6.567     l-33.3-42.259l41.886,30.446c3.458,2.513,7.71,3.62,11.906,3.151l75.31-8.395c9.352-1.042,16.088-9.469,15.046-18.821     c-0.837-7.506-6.435-13.315-13.444-14.782c3.928-22.69,1.704-9.841,5.109-29.509c16.164,3.547,15.363,3.371,18.531,4.067     c3.786,0.831,7.528-1.565,8.359-5.35c0.832-3.794-1.587-7.533-5.35-8.359l-19.143-4.201l1.278-7.383l19.469,4.273     c3.786,0.831,7.528-1.565,8.359-5.35c0.831-3.786-1.565-7.528-5.35-8.359l-20.082-4.407l1.278-7.383l20.408,4.479     c3.802,0.831,7.531-1.578,8.359-5.35c0.831-3.786-1.565-7.528-5.35-8.359l-27.874-6.117c-4.236-0.925-7.343,2.338-8.514,6.634     c-5.6,20.543-13.809,50.217-22.481,82.375l-51.127,5.699L73.51,110.737l33.168,12.244l14.379-1.603     c-0.883-12.413-10.705-22.669-23.492-23.72L51.963,93.91c-14.123-1.161-26.513,9.347-27.674,23.47l-8.103,131.422l10.747,70.071     l-26.2,95.564c-2.986,10.89,3.422,22.139,14.312,25.125c10.893,2.985,22.14-3.426,25.124-14.312l27.353-99.764     c0.759-2.77,0.927-5.668,0.492-8.506l-9.929-64.733l7.954,0.654l24.391,66.498l-20.375,96.209     c-2.339,11.047,4.719,21.899,15.767,24.238c11.038,2.339,21.898-4.715,24.238-15.767l21.593-101.963     c0.796-3.76,0.517-7.668-0.807-11.276L110.375,255.026z" fill="#FFFFFF"/>
		</g>
	</g>
</g>
<g>
</g>
<g>
</g>
<g>
</g>
<g>
</g>
<g>
</g>
<g>
</g>
<g>
</g>
<g>
</g>
<g>
</g>
<g>
</g>
<g>
</g>
<g>
</g>
<g>
</g>
<g>
</g>
<g>
</g>
</svg>
